{"title":"Unknown.2011.TS.x264.Feel-Free","uid":6196577,"size":931614643,"categoryP":"video","categoryS":"movies","magnet":"?xt=urn:btih:3fd7c451ec1368a3bcc75edb1808274f9746cf3c&amp;dn=Unknown.2011.TS.x264.Feel-Free&amp;tr=udp%3A%2F%2Ftracker.openbittorrent.com%3A80&amp;tr=udp%3A%2F%2Fopen.demonii.com%3A1337&amp;tr=udp%3A%2F%2Ftracker.coppersurfer.tk%3A6969&amp;tr=udp%3A%2F%2Fexodus.desync.com%3A6969","seeders":1,"leechers":0,"uploader":"hiest","files":-1,"time":1298467102,"description":"Genre:Drama | Mystery | Thriller \nLanguage:English\nIMDb:http://www.imdb.com/title/tt1401152/ \nSource:TS.ELEKTRI4KA/IMAGINE.Thx.\nSubtitles:Romana/English\n\n\nFormat : MPEG-4\nFormat profile : Base Media\nCodec ID : isom\nFile size : 887 MiB\nDuration : 1h 47mn\nOverall bit rate : 1 150 Kbps\nMovie name : Unknown.2011.TS.x264.Feel-Free\n\n\nVideo\nFormat settings, CABAC : Yes\nFormat settings, ReFrames : 4 frames\nFormat settings, GOP : M=4, N=32\nCodec ID : avc1\nCodec ID/Info : Advanced Video Coding\nDuration : 1h 47mn\nBit rate mode : Variable\nBit rate : 989 Kbps\nWidth : 720 pixels\nHeight : 288 pixels\nDisplay aspect ratio : 2.500\nFrame rate mode : Constant\nFrame rate : 25.000 fps\nColor space : YUV\nChroma subsampling : 4:2:0\nBit depth : 8 bits\nScan type : Progressive\nBits/(Pixel*Frame) : 0.191\nStream size : 766 MiB (86%)\nWriting library : x264\n\nAudio\nID : 2\nFormat : AAC\nFormat/Info : Advanced Audio Codec\nFormat version : Version 4\nFormat profile : LC\nCodec ID : 40\nDuration : 1h 47mn\nBit rate mode : Variable\nBit rate : 151 Kbps\nChannel(s) : 2 channels\nChannel positions : Front: L R\nSampling rate : 48.0 KHz\nStream size : 116 MiB (13%)\n\n\n\n\n\nPlot:\nA man awakens from a coma, only to discover that someone has taken on his identity and that no one, (not even his wife), believes him. With the help of a young woman, he sets out to prove who he is\n\n\n\n\n\n\n\n================================== &lt;a href=&quot;\nhttp://thepiratebay.se/user/hiest&quot; rel=&quot;nofollow&quot; target=&quot;_NEW&quot;&gt;\nhttp://thepiratebay.se/user/hiest&lt;/a&gt;\n==================================","torrent":{"xt":"urn:btih:3fd7c451ec1368a3bcc75edb1808274f9746cf3c","amp;dn":"Unknown.2011.TS.x264.Feel-Free","amp;tr":["udp%3A%2F%2Ftracker.openbittorrent.com%3A80","udp%3A%2F%2Fopen.demonii.com%3A1337","udp%3A%2F%2Ftracker.coppersurfer.tk%3A6969","udp%3A%2F%2Fexodus.desync.com%3A6969"],"infoHash":"3fd7c451ec1368a3bcc75edb1808274f9746cf3c","infoHashBuffer":{"type":"Buffer","data":[63,215,196,81,236,19,104,163,188,199,94,219,24,8,39,79,151,70,207,60]},"announce":[],"urlList":[]}}